<?xml version="1.0" encoding="utf-8"?>
<!-- Generator: Adobe Illustrator 23.0.1, SVG Export Plug-In . SVG Version: 6.00 Build 0)  -->
<svg version="1.1" id="visual" xmlns="http://www.w3.org/2000/svg" xmlns:xlink="http://www.w3.org/1999/xlink" x="0px" y="0px"
	 viewBox="0 0 360 52.2" style="enable-background:new 0 0 360 52.2;" xml:space="preserve">
<style type="text/css">
	.st0{fill:#471D07;}
</style>
<path class="st0" d="M0,40l2.3,1.7c2.4,1.6,7,5,11.9,4.3c4.8-0.7,9.8-5.3,14.6-6.5c4.9-1.2,9.5,1.2,14.4,4.3C48,47,53,51,57.8,51.7
	c4.9,0.6,9.5-2,14.2-7s9.3-12.4,14.2-13.4c4.8-1,9.8,4.4,14.6,6.4c4.9,2,9.5,0.6,14.4,2.5c4.8,1.8,9.8,6.8,14.6,5.1
	c4.9-1.6,9.5-10,14.2-10.6c4.7-0.7,9.3,6.3,14.2,9c4.8,2.6,9.8,1,14.6,1.8c4.9,0.8,9.5,4.2,14.4,4.5c4.8,0.3,9.8-2.3,14.6-3.7
	c4.9-1.3,9.5-1.3,14.2-3.5c4.7-2.1,9.3-6.5,14.2-5.5c4.8,1,9.8,7.4,14.6,11.2c4.9,3.8,9.5,5.2,14.4,1.7c4.8-3.5,9.8-11.9,14.6-13.5
	c4.9-1.7,9.5,3.3,14.2,6.8s9.3,5.5,14.2,2.3c4.8-3.1,9.8-11.5,14.6-12.1c4.9-0.7,9.5,6.3,14.4,8.6c4.8,2.4,9.8,0,14.6,0
	c4.9,0,9.5,2.4,11.9,3.5L360,47V0h-2.3c-2.4,0-7,0-11.9,0c-4.8,0-9.8,0-14.6,0c-4.9,0-9.5,0-14.4,0c-4.8,0-9.8,0-14.6,0
	c-4.9,0-9.5,0-14.2,0s-9.3,0-14.2,0c-4.8,0-9.8,0-14.6,0c-4.9,0-9.5,0-14.4,0c-4.8,0-9.8,0-14.6,0c-4.9,0-9.5,0-14.2,0
	s-9.3,0-14.2,0c-4.8,0-9.8,0-14.6,0c-4.9,0-9.5,0-14.4,0c-4.8,0-9.8,0-14.6,0c-4.9,0-9.5,0-14.2,0s-9.3,0-14.2,0
	c-4.8,0-9.8,0-14.6,0c-4.9,0-9.5,0-14.4,0C96,0,91,0,86.2,0C81.3,0,76.7,0,72,0s-9.3,0-14.2,0C53,0,48,0,43.2,0c-4.9,0-9.5,0-14.4,0
	C24,0,19,0,14.2,0C9.3,0,4.7,0,2.3,0H0V40z"/>
</svg>
