<svg id="visual" xmlns="http://www.w3.org/2000/svg" viewBox="0 0 360 52.21"><defs><style>.cls-1{fill:#471d07;}</style></defs><title>header</title><path class="cls-1" d="M360,0H0V41c4.53.12,11.1,3.53,16,2.83s8-3.13,12.8-4.33,9.5,1.2,14.4,4.3S53,51,57.8,51.7s9.5-2,14.2-7,9.3-12.4,14.2-13.4,9.8,4.4,14.6,6.4,9.5.6,14.4,2.5,9.8,6.8,14.6,5.1,9.5-10,14.2-10.6,9.3,6.3,14.2,9,9.8,1,14.6,1.8,9.5,4.2,14.4,4.5,9.8-2.3,14.6-3.7,9.5-1.3,14.2-3.5,9.3-6.5,14.2-5.5,9.8,7.4,14.6,11.2,9.5,5.2,14.4,1.7,9.8-11.9,14.6-13.5,9.5,3.3,14.2,6.8,9.3,5.5,14.2,2.3,9.8-11.5,14.6-12.1,9.5,6.3,14.4,8.6a31.64,31.64,0,0,0,14.41,3.36c4.9,0,12.2-4.89,14.39-4.66" transform="translate(0 0)"/></svg>