<svg id="visual" viewBox="0 0 360 800" width="360" height="800" xmlns="http://www.w3.org/2000/svg" xmlns:xlink="http://www.w3.org/1999/xlink" version="1.1"><rect x="0" y="0" width="360" height="800" fill="#ffffff"></rect><path d="M0 40L2.3 41.7C4.7 43.3 9.3 46.7 14.2 46C19 45.3 24 40.7 28.8 39.5C33.7 38.3 38.3 40.7 43.2 43.8C48 47 53 51 57.8 51.7C62.7 52.3 67.3 49.7 72 44.7C76.7 39.7 81.3 32.3 86.2 31.3C91 30.3 96 35.7 100.8 37.7C105.7 39.7 110.3 38.3 115.2 40.2C120 42 125 47 129.8 45.3C134.7 43.7 139.3 35.3 144 34.7C148.7 34 153.3 41 158.2 43.7C163 46.3 168 44.7 172.8 45.5C177.7 46.3 182.3 49.7 187.2 50C192 50.3 197 47.7 201.8 46.3C206.7 45 211.3 45 216 42.8C220.7 40.7 225.3 36.3 230.2 37.3C235 38.3 240 44.7 244.8 48.5C249.7 52.3 254.3 53.7 259.2 50.2C264 46.7 269 38.3 273.8 36.7C278.7 35 283.3 40 288 43.5C292.7 47 297.3 49 302.2 45.8C307 42.7 312 34.3 316.8 33.7C321.7 33 326.3 40 331.2 42.3C336 44.7 341 42.3 345.8 42.3C350.7 42.3 355.3 44.7 357.7 45.8L360 47L360 0L357.7 0C355.3 0 350.7 0 345.8 0C341 0 336 0 331.2 0C326.3 0 321.7 0 316.8 0C312 0 307 0 302.2 0C297.3 0 292.7 0 288 0C283.3 0 278.7 0 273.8 0C269 0 264 0 259.2 0C254.3 0 249.7 0 244.8 0C240 0 235 0 230.2 0C225.3 0 220.7 0 216 0C211.3 0 206.7 0 201.8 0C197 0 192 0 187.2 0C182.3 0 177.7 0 172.8 0C168 0 163 0 158.2 0C153.3 0 148.7 0 144 0C139.3 0 134.7 0 129.8 0C125 0 120 0 115.2 0C110.3 0 105.7 0 100.8 0C96 0 91 0 86.2 0C81.3 0 76.7 0 72 0C67.3 0 62.7 0 57.8 0C53 0 48 0 43.2 0C38.3 0 33.7 0 28.8 0C24 0 19 0 14.2 0C9.3 0 4.7 0 2.3 0L0 0Z" fill="#aa270e" stroke-linecap="round" stroke-linejoin="miter"></path></svg>